name D:\school\WTK\thesis\model\3dpredictsim\Results\MidTarsalJoint\Fal_s1_bCst_PF_Natali2010_ls150_MT_k400_MTP_T5_ig23.mot
datacolumns 128
datarows 4
range 0.56271195 0.59647467
endheader
time	pelvis_tilt	pelvis_list	pelvis_rotation	pelvis_tx	pelvis_ty	pelvis_tz	hip_flexion_l	hip_adduction_l	hip_rotation_l	hip_flexion_r	hip_adduction_r	hip_rotation_r	knee_angle_l	knee_angle_r	ankle_angle_l	ankle_angle_r	subtalar_angle_l	subtalar_angle_r	mtj_angle_l	mtj_angle_r	mtp_angle_l	mtp_angle_r	lumbar_extension	lumbar_bending	lumbar_rotation	arm_flex_l	arm_add_l	arm_rot_l	arm_flex_r	arm_add_r	arm_rot_r	elbow_flex_l	elbow_flex_r	pro_sup_l	pro_sup_r	glut_med1_l/activation	glut_med2_l/activation	glut_med3_l/activation	glut_min1_l/activation	glut_min2_l/activation	glut_min3_l/activation	semimem_l/activation	semiten_l/activation	bifemlh_l/activation	bifemsh_l/activation	sar_l/activation	add_long_l/activation	add_brev_l/activation	add_mag1_l/activation	add_mag2_l/activation	add_mag3_l/activation	tfl_l/activation	pect_l/activation	grac_l/activation	glut_max1_l/activation	glut_max2_l/activation	glut_max3_l/activation	iliacus_l/activation	psoas_l/activation	quad_fem_l/activation	gem_l/activation	peri_l/activation	rect_fem_l/activation	vas_med_l/activation	vas_int_l/activation	vas_lat_l/activation	med_gas_l/activation	lat_gas_l/activation	soleus_l/activation	tib_post_l/activation	flex_dig_l/activation	flex_hal_l/activation	tib_ant_l/activation	per_brev_l/activation	per_long_l/activation	per_tert_l/activation	ext_dig_l/activation	ext_hal_l/activation	ercspn_l/activation	intobl_l/activation	extobl_l/activation	glut_med1_r/activation	glut_med2_r/activation	glut_med3_r/activation	glut_min1_r/activation	glut_min2_r/activation	glut_min3_r/activation	semimem_r/activation	semiten_r/activation	bifemlh_r/activation	bifemsh_r/activation	sar_r/activation	add_long_r/activation	add_brev_r/activation	add_mag1_r/activation	add_mag2_r/activation	add_mag3_r/activation	tfl_r/activation	pect_r/activation	grac_r/activation	glut_max1_r/activation	glut_max2_r/activation	glut_max3_r/activation	iliacus_r/activation	psoas_r/activation	quad_fem_r/activation	gem_r/activation	peri_r/activation	rect_fem_r/activation	vas_med_r/activation	vas_int_r/activation	vas_lat_r/activation	med_gas_r/activation	lat_gas_r/activation	soleus_r/activation	tib_post_r/activation	flex_dig_r/activation	flex_hal_r/activation	tib_ant_r/activation	per_brev_r/activation	per_long_r/activation	per_tert_r/activation	ext_dig_r/activation	ext_hal_r/activation	ercspn_r/activation	intobl_r/activation	extobl_r/activation	
          0.56271195	         -2.92996750	          2.00579736	         -5.07064911	          0.70338994	          0.91988077	          0.00205052	         29.43901549	          3.32418164	         -2.19293094	        -16.86565066	         -0.75830365	          6.74730541	        -11.49447379	         -7.09441112	          5.92721862	         -1.42797715	         -4.35694172	          8.11677159	         -0.11331110	          3.68414587	          0.63020386	         14.65301641	         -2.08406802	         -0.23495137	          1.90034105	         -3.31676164	        -13.45162725	         10.87547154	          5.43431413	        -13.45223271	         17.23799079	         13.96257721	         31.54912400	         86.51662706	         86.51662706	          0.05000075	          0.05000025	          0.05937847	          0.05000006	          0.05000009	          0.05000066	          0.10050428	          0.05937863	          0.20879617	          0.05000032	          0.05000031	          0.11453543	          0.19187010	          0.19680899	          0.16744669	          0.10863460	          0.05937849	          0.05000235	          0.11605274	          0.05937864	          0.05937868	          0.10088534	          0.05000005	          0.05000006	          0.18374343	          0.05000059	          0.05000022	          0.05000005	          0.07056308	          0.07227263	          0.05942738	          0.05759999	          0.05000562	          0.05937850	          0.05000020	          0.05000041	          0.05000056	          0.48417989	          0.29713299	          0.17776105	          0.10195792	          0.46145582	          0.05000031	          0.05937855	          0.12712019	          0.10648688	          0.33087491	          0.10146957	          0.08067190	          0.32611744	          0.21021201	          0.11482639	          0.05000043	          0.05000010	          0.05000007	          0.06217175	          0.11563532	          0.05000004	          0.05000004	          0.05000006	          0.05000020	          0.05000013	          0.32940224	          0.05000021	          0.05000017	          0.05000454	          0.05000146	          0.05000039	          0.40731515	          0.63486964	          0.05000008	          0.05000033	          0.05809335	          0.21713655	          0.05000027	          0.05000022	          0.05000020	          0.30146761	          0.41008277	          0.33863146	          0.28137040	          0.28245081	          0.37010525	          0.05000002	          0.05937761	          0.12427958	          0.05000015	          0.05000004	          0.05000016	          0.05000000	          0.05000000	          0.05000001	
          0.57396619	         -2.92934827	          2.09766191	         -5.34795731	          0.72020609	          0.91901326	          0.00184146	         28.83919742	          3.71174672	         -2.01605024	        -16.78098242	         -1.05884683	          6.55260742	        -11.48613665	         -8.91744659	          5.27212524	         -1.96099299	         -4.76312762	          9.10963086	         -0.13579641	          3.01332555	          0.62832458	         16.23113883	         -1.89660681	         -0.43648851	          1.97220547	         -4.17284229	        -13.44970940	         10.68061536	          5.15846276	        -13.46093413	         17.50368766	         13.57004790	         32.76461992	         86.51662706	         86.51662706	          0.05000065	          0.05000014	          0.05000006	          0.05937855	          0.05000731	          0.05000012	          0.08463016	          0.05000012	          0.17581800	          0.05000011	          0.05000051	          0.11810481	          0.24348365	          0.23990437	          0.16419628	          0.09675823	          0.05000009	          0.07051669	          0.09772317	          0.05000020	          0.05000017	          0.11414673	          0.07051580	          0.06729476	          0.53364287	          0.17713665	          0.16555029	          0.08010146	          0.19127562	          0.19074407	          0.16403849	          0.05000000	          0.05000001	          0.05000000	          0.05000010	          0.05000052	          0.05000055	          0.54171744	          0.25020483	          0.18382737	          0.23217737	          0.48614517	          0.05937891	          0.05000002	          0.10704222	          0.08966783	          0.27861498	          0.08544299	          0.06793022	          0.27460894	          0.17701015	          0.09669018	          0.05000132	          0.05000027	          0.05000037	          0.05235208	          0.09737141	          0.09984238	          0.09473906	          0.05665095	          0.05000429	          0.05001830	          0.27737494	          0.06334686	          0.05000223	          0.05000146	          0.05000107	          0.05000116	          0.34298186	          0.53509104	          0.05000057	          0.05381190	          0.05937854	          0.18284099	          0.05000842	          0.15116717	          0.13622251	          0.25385236	          0.34531235	          0.29957319	          0.25268406	          0.23783978	          0.31165694	          0.05000001	          0.05000027	          0.12245991	          0.05000007	          0.05000001	          0.05000008	          0.05000002	          0.07252699	          0.05280660	
          0.58522043	         -2.92484553	          2.19308867	         -5.59848033	          0.73735851	          0.91817967	          0.00165438	         28.11651202	          4.01833571	         -1.77660685	        -16.63785834	         -1.36185428	          6.34809616	        -11.88603169	        -10.83370751	          4.63393536	         -2.63557507	         -5.17893633	         10.07654221	         -0.28093477	          2.22316793	          0.61514796	         17.87094070	         -1.68583761	         -0.65094633	          2.03294899	         -5.07156770	        -13.45586972	         10.52376806	          4.79878990	        -13.46618779	         17.69006379	         13.24593605	         33.97123039	         86.51662706	         86.51662706	          0.23110727	          0.05000008	          0.05000086	          0.05000009	          0.05000006	          0.23682245	          0.09545248	          0.08797947	          0.15769205	          0.05000015	          0.05000067	          0.09945080	          0.20502670	          0.20201278	          0.13826242	          0.10554598	          0.05000032	          0.05937941	          0.08228862	          0.05000049	          0.09920953	          0.09611791	          0.05937848	          0.05666637	          0.44935676	          0.14915887	          0.17072372	          0.06744985	          0.16106464	          0.16061705	          0.13812947	          0.05247297	          0.05274832	          0.05167343	          0.05000033	          0.05000054	          0.05000043	          0.45671144	          0.27103238	          0.15479285	          0.19550619	          0.55101585	          0.05000032	          0.05000000	          0.11810471	          0.07550526	          0.35111980	          0.07194772	          0.05720102	          0.23123598	          0.14905234	          0.08141849	          0.05000112	          0.05000036	          0.05000025	          0.05000007	          0.08199222	          0.13674067	          0.10785175	          0.05937923	          0.05937886	          0.05937841	          0.23356526	          0.08373471	          0.05014172	          0.05000338	          0.05000391	          0.05937684	          0.28880975	          0.52526204	          0.05401944	          0.05000053	          0.05000007	          0.15396222	          0.09701227	          0.12729132	          0.11470706	          0.21375769	          0.29077205	          0.25225715	          0.21277396	          0.20027431	          0.26243243	          0.05000000	          0.05000017	          0.14804531	          0.05000005	          0.05000002	          0.05000006	          0.05284925	          0.06107173	          0.05937857	
          0.59647467	         -2.91807025	          2.29225631	         -5.81526852	          0.75468191	          0.91738893	          0.00146231	         27.27868426	          4.27123105	         -1.52504487	        -16.40728216	         -1.66316718	          6.14380416	        -12.26372543	        -12.87542460	          4.07121760	         -3.46611286	         -5.59416063	         10.99926467	         -0.22098401	          1.36318744	          0.62861239	         19.48574141	         -1.46904872	         -0.87727318	          2.08440751	         -5.97247516	        -13.46785695	         10.41798704	          4.37761568	        -13.47295261	         17.80829874	         12.96723908	         35.16302440	         86.51662706	         86.51662706	          0.31597353	          0.26362722	          0.26364110	          0.14365688	          0.21158194	          0.19941785	          0.08037627	          0.07408367	          0.13278543	          0.07281974	          0.05000202	          0.08374307	          0.17264381	          0.17010597	          0.11642469	          0.12925687	          0.05000033	          0.05000091	          0.06929167	          0.19176516	          0.15671040	          0.09924775	          0.05000004	          0.05000004	          0.37838321	          0.12560006	          0.14375893	          0.05679652	          0.13563039	          0.15294570	          0.11631570	          0.05000014	          0.05000025	          0.05000003	          0.05000003	          0.05000009	          0.05000012	          0.57929295	          0.33129979	          0.17588952	          0.53214870	          0.54088012	          0.23662958	          0.07103901	          0.09945072	          0.06357960	          0.30970407	          0.06058396	          0.05000005	          0.33873288	          0.12551034	          0.06855889	          0.05000118	          0.05000009	          0.05000008	          0.05000015	          0.06904264	          0.11514389	          0.09081719	          0.05000069	          0.05000069	          0.05000027	          0.23058856	          0.07050994	          0.05000030	          0.05000076	          0.05000043	          0.05000027	          0.24319380	          0.48533902	          0.05000005	          0.05000038	          0.05000021	          0.12964476	          0.08169031	          0.13585362	          0.11810635	          0.17999577	          0.24484612	          0.21241444	          0.17916743	          0.16864208	          0.22098263	          0.06075490	          0.09798509	          0.15030071	          0.05000026	          0.10227679	          0.05000057	          0.06481281	          0.05142577	          0.05000004	
